0
SECTION
2
HEADER
9
$INSUNITS
70
4
9
$ACADVER
1
AC1014
9
$HANDSEED
5
FFFF
0
ENDSEC
0
SECTION
2
TABLES
0
TABLE
2
VPORT
5
8
100
AcDbSymbolTable
0
ENDTAB
0
TABLE
2
LTYPE
5
5
100
AcDbSymbolTable
0
LTYPE
5
14
100
AcDbSymbolTableRecord
100
AcDbLinetypeTableRecord
2
BYBLOCK
70
0
0
LTYPE
5
15
100
AcDbSymbolTableRecord
100
AcDbLinetypeTableRecord
2
BYLAYER
70
0
0
ENDTAB
0
TABLE
2
LAYER
5
2
100
AcDbSymbolTable
70
2
0
LAYER
5
50
100
AcDbSymbolTableRecord
100
AcDbLayerTableRecord
2
0
70
0
6
CONTINUOUS
0
ENDTAB
0
TABLE
2
STYLE
5
3
100
AcDbSymbolTable
70
1
0
STYLE
5
11
100
AcDbSymbolTableRecord
100
AcDbTextStyleTableRecord
2
STANDARD
70
0
0
ENDTAB
0
TABLE
2
VIEW
5
6
100
AcDbSymbolTable
70
0
0
ENDTAB
0
TABLE
2
UCS
5
7
100
AcDbSymbolTable
70
0
0
ENDTAB
0
TABLE
2
APPID
5
9
100
AcDbSymbolTable
70
2
0
APPID
5
12
100
AcDbSymbolTableRecord
100
AcDbRegAppTableRecord
2
ACAD
70
0
0
ENDTAB
0
TABLE
2
DIMSTYLE
5
A
100
AcDbSymbolTable
70
1
0
ENDTAB
0
TABLE
2
BLOCK_RECORD
5
1
100
AcDbSymbolTable
70
1
0
BLOCK_RECORD
5
1F
100
AcDbSymbolTableRecord
100
AcDbBlockTableRecord
2
*MODEL_SPACE
0
BLOCK_RECORD
5
1B
100
AcDbSymbolTableRecord
100
AcDbBlockTableRecord
2
*PAPER_SPACE
0
ENDTAB
0
ENDSEC
0
SECTION
2
BLOCKS
0
BLOCK
5
20
100
AcDbEntity
100
AcDbBlockBegin
2
*MODEL_SPACE
0
ENDBLK
5
21
100
AcDbEntity
100
AcDbBlockEnd
0
BLOCK
5
1C
100
AcDbEntity
100
AcDbBlockBegin
2
*PAPER_SPACE
0
ENDBLK
5
1D
100
AcDbEntity
100
AcDbBlockEnd
0
ENDSEC
0
SECTION
2
ENTITIES
0
LWPOLYLINE
5
100
100
AcDbEntity
8
0
100
AcDbPolyline
90
4
70
1
43
0.0
10
-49.749371855331006
20
5
10
-11.456439237389599
20
4.9999999999999964
42
-0.18914919623216903
10
-5
20
11.456439237389606
10
-5.0000000000000044
20
49.749371855331006
42
0.35668224159491208
0
LWPOLYLINE
5
101
100
AcDbEntity
8
0
100
AcDbPolyline
90
3
70
1
43
0.0
10
49.749371855331006
20
-5
10
14.792904990047315
20
-5
10
27.136319492993163
20
-41.995477903867226
42
0.22807284009140044
0
LWPOLYLINE
5
102
100
AcDbEntity
8
0
100
AcDbPolyline
90
4
70
1
43
0.0
10
-5
20
-49.749371855331006
10
-4.9999999999999956
20
-24.344203331534278
10
-11.456439237389603
20
-5
10
-49.749371855330999
20
-5.0000000000000133
42
0.35668224159491246
0
LWPOLYLINE
5
103
100
AcDbEntity
8
0
100
AcDbPolyline
90
4
70
1
43
0.0
10
4.9999999999999805
20
49.749371855330899
42
-0.35668224159491269
10
49.749371855331006
20
5.0000000000000071
10
11.456439237389606
20
5
42
0.18914919623217044
10
4.9999999999999964
20
11.456439237389606
0
LWPOLYLINE
5
104
100
AcDbEntity
8
0
100
AcDbPolyline
90
4
70
1
43
0.0
10
355
20
49.749371855330992
10
355
20
11.456439237389585
42
-0.1891491962321713
10
361.45643923738959
20
5
10
399.74937185533099
20
5.0000000000000515
42
0.35668224159491296
0
LWPOLYLINE
5
105
100
AcDbEntity
8
0
100
AcDbPolyline
90
3
70
1
43
0.0
10
345
20
-49.749371855330992
10
345
20
-12.857593182219262
10
302.52562589684533
20
-15.690245489274998
42
0.29608130536154681
0
CIRCLE
5
106
100
AcDbEntity
8
0
100
AcDbCircle
10
200
20
-10
30
0
40
12.5
210
0
220
0
230
1
0
LWPOLYLINE
5
107
100
AcDbEntity
8
0
100
AcDbPolyline
90
4
70
1
43
0.0
10
361.45643923738965
20
-5.000000000000016
42
-0.18914919623217052
10
355
20
-11.456439237389603
10
355
20
-49.749371855330999
42
0.35668224159491269
10
399.74937185533099
20
-5
0
LWPOLYLINE
5
108
100
AcDbEntity
8
0
100
AcDbPolyline
90
3
70
1
43
0.0
10
300.84216235295548
20
9.1382163394621436
10
345
20
12.045029050974133
10
344.99999999999994
20
49.749371855331013
42
0.33328591257227252
0
LWPOLYLINE
5
109
100
AcDbEntity
8
0
100
AcDbPolyline
90
4
70
1
43
0.0
10
271.35095834003732
20
-5.7590902572033276
10
271.62767782326102
20
-8.9220084236446198
10
311.47546574693092
20
-5.4357787137382862
10
311.19874626370711
20
-2.272860547297002
0
LWPOLYLINE
5
110
100
AcDbEntity
8
0
100
AcDbPolyline
90
4
70
1
43
0.0
10
239.65775028657566
20
-25.412813043025714
10
237.05694254595812
20
-27.233918228440302
10
260
20
-60
10
262.60080774061754
20
-58.178894814585419
0
LWPOLYLINE
5
111
100
AcDbEntity
8
0
100
AcDbPolyline
90
4
70
1
43
0.0
10
125
20
9.1088287749417418
10
125
20
5.9338287749417429
10
165
20
5.9338287749417429
10
165
20
9.1088287749417418
0
LWPOLYLINE
5
112
100
AcDbEntity
8
0
100
AcDbPolyline
90
4
70
1
43
0.0
10
185
20
9.1088287749417418
10
185
20
5.9338287749417429
10
225
20
5.9338287749417429
10
225
20
9.1088287749417418
0
LWPOLYLINE
5
113
100
AcDbEntity
8
0
100
AcDbPolyline
90
4
70
1
43
0.0
10
118.48165388212632
20
-10.914957298513475
10
115.41483938365852
20
-10.093206830312965
10
105.06207757955767
20
-48.730239881875704
10
108.12889207802547
20
-49.551990350076224
0
LWPOLYLINE
5
114
100
AcDbEntity
8
0
100
AcDbPolyline
90
4
70
1
43
0.0
10
411.57437185533098
20
-15
10
414.74937185533099
20
-15
10
414.74937185533099
20
25
10
411.57437185533104
20
25
0
LWPOLYLINE
5
115
100
AcDbEntity
8
0
100
AcDbPolyline
90
4
70
1
43
0.0
10
31.605668474020483
20
-84.096615707271837
10
31.605668474020483
20
-87.271615707271849
10
71.60566847402049
20
-87.271615707271849
10
71.60566847402049
20
-84.096615707271837
0
LWPOLYLINE
5
116
100
AcDbEntity
8
0
100
AcDbPolyline
90
4
70
1
43
0.0
10
-49.749371855331006
20
1.1750000000000005
10
-49.749371855331006
20
-1.9999999999999996
10
-9.749371855331006
20
-1.9999999999999996
10
-9.749371855331006
20
1.1750000000000005
0
LWPOLYLINE
5
117
100
AcDbEntity
8
0
100
AcDbPolyline
90
4
70
1
43
0.0
10
4.3027183379685008
20
-11.075753068835667
10
1.3191942669732426
20
-12.161667023894669
10
15
20
-49.749371855331006
10
17.983524070995259
20
-48.663457900272007
0
LWPOLYLINE
5
118
100
AcDbEntity
8
0
100
AcDbPolyline
90
4
70
1
43
0.0
10
336.12731282285097
20
-97.945466607568022
10
335.57597985875839
20
-101.07223122338181
10
374.96828997924672
20
-108.01815833005902
10
375.51962294333924
20
-104.89139371424528
0
LWPOLYLINE
5
119
100
AcDbEntity
8
0
100
AcDbPolyline
90
4
70
1
43
0.0
10
34.859225902826559
20
-103.54454263713527
10
31.8757018318313
20
-104.63045659219424
10
45.556507564858045
20
-142.21816142363056
10
48.540031635853325
20
-141.13224746857159
0
LWPOLYLINE
5
120
100
AcDbEntity
8
0
100
AcDbPolyline
90
30
70
1
43
0.0
10
-28.97963724755709
20
69.175000000000011
10
28.979637247557044
20
69.174999999999912
42
-0.63255978001539415
10
35.217788426493819
20
-66.217122999619335
10
36.59598674142179
20
-70.347836206641276
10
58.391882114664071
20
-65.482163654543228
10
95.062077579557666
20
-38.730239881875704
10
110
20
14.108828774941742
10
236.74237823937389
20
14.108828774941742
10
240.86283846305895
20
5.1899102085183486
10
275.37209064087159
20
7.4615778951708212
42
-0.27525788054170669
10
321.02036275244291
20
69.175000000000011
10
378.97963724755709
20
69.175000000000168
42
-1.6296626260232707
10
277.04384758579818
20
-17.389647061276211
10
252.38770465363118
20
-19.033986304281338
10
280
20
-60
10
331.52304377846053
20
-89.697752979419874
10
385.49862202778689
20
-100
10
389.67376159864614
20
-112.51365930411077
10
250
20
-100
10
200
20
-100
10
152.40977127357047
20
-112.51365930411077
10
100
20
-130
10
53.540031635853332
20
-121.13224746857158
10
61.735534245454026
20
-145.69567241328255
42
-0.39909973937361037
10
54.907058191112242
20
-161.49655513225758
10
52.55168502503976
20
-155.02522054408414
10
49.568160954044501
20
-156.11113449914316
10
51.843754031343408
20
-162.3632750948891
42
-0.3266930588349683
10
38.776063830536856
20
-155.5021138541307
10
11.605668474020533
20
-74.096615707271965
42
-0.88605992990152627
0
LWPOLYLINE
5
121
100
AcDbEntity
8
0
100
AcDbPolyline
90
4
70
1
43
0.0
10
-20
20
63.174999999999997
10
-20
20
60
10
20
20
60
10
20
20
63.174999999999997
0
LWPOLYLINE
5
122
100
AcDbEntity
8
0
100
AcDbPolyline
90
4
70
1
43
0.0
10
330
20
63.174999999999997
10
330
20
60
10
370
20
60
10
370
20
63.174999999999997
0
CIRCLE
5
123
100
AcDbEntity
8
0
100
AcDbCircle
10
317.72500183284541
20
-53.000001117589441
30
0
40
1.5000000000000213
210
0
220
0
230
1
0
CIRCLE
5
124
100
AcDbEntity
8
0
100
AcDbCircle
10
299.72500000000258
20
-53.000002086164919
30
0
40
1.5000000000000213
210
0
220
0
230
1
0
CIRCLE
5
125
100
AcDbEntity
8
0
100
AcDbCircle
10
317.72500183284541
20
-43.000002086164919
30
0
40
1.4999999999999858
210
0
220
0
230
1
0
CIRCLE
5
126
100
AcDbEntity
8
0
100
AcDbCircle
10
299.72500000000258
20
-43.000002086164919
30
0
40
1.5000000000000213
210
0
220
0
230
1
0
ENDSEC
0
SECTION
2
OBJECTS
0
DICTIONARY
5
C
100
AcDbDictionary
3
ACAD_GROUP
350
D
3
ACAD_MLINESTYLE
350
17
0
DICTIONARY
5
D
100
AcDbDictionary
0
DICTIONARY
5
1A
330
C
100
AcDbDictionary
0
DICTIONARY
5
17
100
AcDbDictionary
0
ENDSEC
0
EOF
